<svg xmlns="http://www.w3.org/2000/svg" viewBox="0 0 512 512">
  <defs>
    <linearGradient id="bg" x1="0%" y1="0%" x2="100%" y2="100%">
      <stop offset="0%" stop-color="#0f172a"/>
      <stop offset="100%" stop-color="#1e293b"/>
    </linearGradient>
  </defs>
  <rect width="512" height="512" fill="url(#bg)" rx="96"/>
  <rect x="76" y="118" width="360" height="304" rx="24" fill="#1e293b" stroke="#38bdf8" stroke-width="6"/>
  <rect x="76" y="118" width="360" height="64" rx="24" fill="#38bdf8"/>
  <rect x="76" y="158" width="360" height="24" fill="#38bdf8"/>
  <circle cx="156" cy="100" r="14" fill="#38bdf8"/>
  <rect x="148" y="74" width="16" height="50" rx="6" fill="#38bdf8"/>
  <circle cx="356" cy="100" r="14" fill="#38bdf8"/>
  <rect x="348" y="74" width="16" height="50" rx="6" fill="#38bdf8"/>
  <g fill="#94a3b8" font-family="sans-serif" font-size="38" font-weight="700" text-anchor="middle">
    <text x="136" y="240">일</text>
    <text x="216" y="240">월</text>
    <text x="296" y="240">화</text>
    <text x="376" y="240">수</text>
  </g>
  <rect x="178" y="270" width="156" height="40" rx="8" fill="#22c55e"/>
  <rect x="220" y="320" width="200" height="40" rx="8" fill="#3b82f6"/>
  <rect x="100" y="370" width="180" height="40" rx="8" fill="#f59e0b"/>
  <text x="256" y="486" font-family="sans-serif" font-size="48" font-weight="700" fill="#fff" text-anchor="middle">투어</text>
</svg>
